<svg width="17" height="17" viewBox="0 0 17 17" xmlns="http://www.w3.org/2000/svg">
    <path d="M3.44 6.315c.78.412 1.57.84 2.333 1.253l.693.374.343.184.633.341c.613.33.937.877.934 1.58v4.28c0 .6-.368 1.058-.915 1.14a1.127 1.127 0 0 1-.682-.113 565.62 565.62 0 0 1-4.087-2.203c-.577-.314-.899-.86-.899-1.54l-.002-1.255V7.332c0-.627.393-1.102.956-1.16.24-.02.481.03.693.143zm11.857 0c.344.203.547.583.541 1.014-.005.5-.002 1.012-.002 1.506v.14l.002.512v.607c0 .456-.002.926.003 1.388.011.775-.335 1.352-1.022 1.72-1.25.669-2.59 1.386-3.89 2.114-.175.102-.379.157-.585.157-.192 0-.38-.05-.544-.148-.346-.204-.553-.586-.553-1.02.003-.528.003-1.064 0-1.583v-2.62c-.002-.733.341-1.308.993-1.654l.112-.06A214.336 214.336 0 0 0 14.13 6.33c.382-.214.819-.222 1.168-.016zm-12.448.874c-.014.01-.039.055-.039.143v3.023c0 .419.001.838.003 1.254 0 .307.113.505.366.643 1.467.8 2.8 1.517 4.076 2.199a.152.152 0 0 0 .05.005c.016-.003.018-.005.018-.008a.22.22 0 0 0 .028-.124v-4.28c0-.324-.118-.527-.399-.678l-.632-.341-.343-.184-.693-.374c-.761-.412-1.547-.836-2.325-1.248a.297.297 0 0 0-.11-.03zm11.893 0a.227.227 0 0 0-.11.036 218.197 218.197 0 0 1-3.796 2.067l-.113.06c-.321.173-.453.39-.45.75v4.211c0 .077.024.121.046.135.022.014.066.005.113-.022A215.55 215.55 0 0 1 14.34 12.3c.347-.184.487-.418.481-.802-.005-.47-.005-.946-.005-1.405V8.838c0-.497-.003-1.011.003-1.517 0-.06-.014-.11-.039-.127-.01-.005-.025-.008-.038-.005zm-5.03-5.56c1.075.558 2.166 1.127 3.218 1.676l.9.467c.497.259.598.652.598.935 0 .283-.107.668-.602.923l-1.81.94-2.268 1.18c-.17.09-.355.156-.545.198l-.349.035c-.129.011-.26 0-.387-.033a2.612 2.612 0 0 1-.544-.187c-1.155-.59-2.32-1.2-3.45-1.789l-.648-.338c-.328-.17-.547-.459-.602-.792a.97.97 0 0 1 .26-.832c.102-.102.218-.187.347-.253 1.262-.657 2.688-1.402 4.095-2.128a1.88 1.88 0 0 1 1.787-.002zm-1.314.912c-1.404.726-2.83 1.47-4.09 2.128-.022.01-.038.021-.052.03a.168.168 0 0 0 .044.033l.646.338c1.127.588 2.292 1.195 3.441 1.786.099.042.198.075.302.097l.154.008a.806.806 0 0 0 .435-.116l2.27-1.179 1.811-.94c.014-.008.028-.014.039-.022a.376.376 0 0 0-.039-.022l-.899-.47c-1.055-.55-2.143-1.118-3.215-1.674a.854.854 0 0 0-.847.003z" fill="#BCC0D9"/>
</svg>
